<svg width="48" height="48" viewBox="0 0 48 48" fill="none" xmlns="http://www.w3.org/2000/svg">
<path d="M38.3999 6.3999H9.5999C7.8319 6.3999 6.3999 7.8319 6.3999 9.5999V38.3999C6.3999 40.1679 7.8319 41.5999 9.5999 41.5999H25.5999V27.1999H20.7999V22.3999H25.5999V19.8223C25.5999 14.9423 27.9775 12.7999 32.0335 12.7999C33.9759 12.7999 35.0031 12.9439 35.4895 13.0095V17.5999H32.7231C31.0015 17.5999 30.3999 18.5087 30.3999 20.3487V22.3999H35.4463L34.7615 27.1999H30.3999V41.5999H38.3999C40.1679 41.5999 41.5999 40.1679 41.5999 38.3999V9.5999C41.5999 7.8319 40.1663 6.3999 38.3999 6.3999Z" fill="white"/>
</svg>
