<svg width="48" height="48" viewBox="0 0 48 48" fill="none" xmlns="http://www.w3.org/2000/svg">
<path d="M38.3999 6.3999H9.5999C7.8319 6.3999 6.3999 7.8319 6.3999 9.5999V38.3999C6.3999 40.1679 7.8319 41.5999 9.5999 41.5999H38.3999C40.1679 41.5999 41.5999 40.1679 41.5999 38.3999V9.5999C41.5999 7.8319 40.1679 6.3999 38.3999 6.3999ZM17.5263 35.1999H12.8063V20.0127H17.5263V35.1999ZM15.1183 17.8415C13.5967 17.8415 12.3663 16.6079 12.3663 15.0895C12.3663 13.5711 13.5983 12.3391 15.1183 12.3391C16.6351 12.3391 17.8687 13.5727 17.8687 15.0895C17.8687 16.6079 16.6351 17.8415 15.1183 17.8415ZM35.2063 35.1999H30.4895V27.8143C30.4895 26.0527 30.4575 23.7871 28.0367 23.7871C25.5807 23.7871 25.2031 25.7055 25.2031 27.6863V35.1999H20.4863V20.0127H25.0143V22.0879H25.0783C25.7087 20.8943 27.2479 19.6351 29.5439 19.6351C34.3231 19.6351 35.2063 22.7807 35.2063 26.8703V35.1999Z" fill="white"/>
</svg>
