<svg width="48" height="48" viewBox="0 0 48 48" fill="none" xmlns="http://www.w3.org/2000/svg">
<path d="M9.5999 6.3999C7.8319 6.3999 6.3999 7.8319 6.3999 9.5999V38.3999C6.3999 40.1679 7.8319 41.5999 9.5999 41.5999H38.3999C40.1679 41.5999 41.5999 40.1679 41.5999 38.3999V9.5999C41.5999 7.8319 40.1679 6.3999 38.3999 6.3999H9.5999ZM13.8374 14.3999H21.2155L25.5218 20.5562L30.8499 14.3999H33.1718L26.5655 22.0499L34.6468 33.5999H27.2687L22.4905 26.7687L16.5905 33.5999H14.2312L21.4405 25.2718L13.8374 14.3999ZM17.4062 16.2937L28.2124 31.6968H31.0749L20.2655 16.2937H17.4062Z" fill="white"/>
</svg>
