<svg width="80" height="80" viewBox="0 0 80 80" fill="none" xmlns="http://www.w3.org/2000/svg">
<path d="M69.1866 17.8167C68.8735 17.4555 68.4865 17.1659 68.0517 16.9675C67.6169 16.7691 67.1445 16.6665 66.6666 16.6667H20.6033L19.9533 12.7867C19.8239 12.0083 19.4226 11.3011 18.8207 10.7909C18.2189 10.2806 17.4556 10.0004 16.6666 10H9.16658C8.28253 10 7.43468 10.3512 6.80956 10.9763C6.18444 11.6014 5.83325 12.4493 5.83325 13.3333C5.83325 14.2174 6.18444 15.0652 6.80956 15.6904C7.43468 16.3155 8.28253 16.6667 9.16658 16.6667H13.8433L20.0433 53.88L20.1933 54.2933L20.3733 54.7967L20.7733 55.3933L21.0899 55.7667L21.7333 56.2L22.1066 56.4167C22.495 56.5763 22.91 56.6611 23.3299 56.6667H59.9999C60.884 56.6667 61.7318 56.3155 62.3569 55.6904C62.9821 55.0652 63.3332 54.2174 63.3332 53.3333C63.3332 52.4493 62.9821 51.6014 62.3569 50.9763C61.7318 50.3512 60.884 50 59.9999 50H26.1566L25.6033 46.6667H63.3332C64.1354 46.6668 64.9106 46.3776 65.5168 45.8523C66.123 45.327 66.5193 44.6007 66.6332 43.8067L69.9666 20.4733C70.0345 20.0005 70 19.5185 69.8655 19.0602C69.7309 18.6018 69.4994 18.1777 69.1866 17.8167ZM62.8232 23.3333L61.8732 30H49.9999V23.3333H62.8232ZM46.6666 23.3333V30H36.6666V23.3333H46.6666ZM46.6666 33.3333V40H36.6666V33.3333H46.6666ZM33.3333 23.3333V30H23.3333L22.8399 30.1L21.7133 23.3333H33.3333ZM23.3799 33.3333H33.3333V40H24.4899L23.3799 33.3333ZM49.9999 40V33.3333H61.3932L60.4432 40H49.9999Z" fill="white"/>
<path d="M28.3333 70C31.0947 70 33.3333 67.7614 33.3333 65C33.3333 62.2386 31.0947 60 28.3333 60C25.5718 60 23.3333 62.2386 23.3333 65C23.3333 67.7614 25.5718 70 28.3333 70Z" fill="white"/>
<path d="M58.3333 70C61.0947 70 63.3333 67.7614 63.3333 65C63.3333 62.2386 61.0947 60 58.3333 60C55.5718 60 53.3333 62.2386 53.3333 65C53.3333 67.7614 55.5718 70 58.3333 70Z" fill="white"/>
</svg>
