<svg width="16" height="16" viewBox="0 0 16 16" fill="none" xmlns="http://www.w3.org/2000/svg">
<path d="M8 8.62933L10.8853 11.5147C10.9683 11.5976 11.0702 11.6421 11.1911 11.648C11.312 11.6539 11.4199 11.6095 11.5147 11.5147C11.6095 11.4199 11.6569 11.315 11.6569 11.2C11.6569 11.085 11.6095 10.9801 11.5147 10.8853L8.62933 8L11.5147 5.11467C11.5976 5.0317 11.6421 4.92978 11.648 4.80889C11.6539 4.688 11.6095 4.58015 11.5147 4.48533C11.4199 4.39052 11.315 4.34311 11.2 4.34311C11.085 4.34311 10.9801 4.39052 10.8853 4.48533L8 7.37067L5.11467 4.48533C5.0317 4.40237 4.92978 4.35793 4.80889 4.352C4.688 4.34607 4.58015 4.39052 4.48533 4.48533C4.39052 4.58015 4.34311 4.68504 4.34311 4.8C4.34311 4.91496 4.39052 5.01985 4.48533 5.11467L7.37067 8L4.48533 10.8853C4.40237 10.9683 4.35793 11.0705 4.352 11.192C4.34607 11.3123 4.39052 11.4199 4.48533 11.5147C4.58015 11.6095 4.68504 11.6569 4.8 11.6569C4.91496 11.6569 5.01985 11.6095 5.11467 11.5147L8 8.62933ZM8.00267 16C6.8963 16 5.8563 15.7902 4.88267 15.3707C3.90904 14.9505 3.06193 14.3804 2.34133 13.6604C1.62074 12.9404 1.05037 12.0942 0.630222 11.1218C0.210074 10.1493 0 9.10963 0 8.00267C0 6.8957 0.210074 5.8557 0.630222 4.88267C1.04978 3.90904 1.61896 3.06193 2.33778 2.34133C3.05659 1.62074 3.90311 1.05037 4.87733 0.630222C5.85156 0.210074 6.89156 0 7.99733 0C9.10311 0 10.1431 0.210074 11.1173 0.630222C12.091 1.04978 12.9381 1.61926 13.6587 2.33867C14.3793 3.05807 14.9496 3.90459 15.3698 4.87822C15.7899 5.85185 16 6.89156 16 7.99733C16 9.10311 15.7902 10.1431 15.3707 11.1173C14.9511 12.0916 14.381 12.9387 13.6604 13.6587C12.9399 14.3787 12.0936 14.949 11.1218 15.3698C10.1499 15.7905 9.11022 16.0006 8.00267 16Z" fill="white"/>
</svg>
