<svg width="52" height="80" viewBox="0 0 52 80" fill="none" xmlns="http://www.w3.org/2000/svg">
<path fill-rule="evenodd" clip-rule="evenodd" d="M17.4214 25.0666C17.4214 20.816 19.5816 16.3678 24.1827 15.738C38.5568 13.7683 37.4504 37.5411 22.5672 32.288C20.0937 31.4126 17.4214 27.795 17.4214 25.0666ZM21.5283 23.4666C21.5283 25.4026 22.1224 27.4768 24.0269 28.2854C27.8536 29.9104 30.5373 27.2772 30.5373 23.4666C30.5373 21.2365 27.4477 19.4532 25.1728 19.8012C23.6928 20.0269 21.5283 22.0632 21.5283 23.4666ZM16.0561 4.44063L14.1507 3.1582C13.157 2.38905 12.8148 2.97577 12.0401 3.78436C9.81433 6.10568 7.26281 8.32434 5.1154 10.6821C3.82199 12.1033 7.08753 14.1037 7.08753 15.4665C7.08753 15.6092 6.58739 16.7847 6.45159 16.96C6.01098 17.5289 1.65544 17.4269 1.65544 18.5332V29.8667C1.65544 31.6302 5.60536 29.9122 6.70105 32.2555C7.7423 34.4816 4.70261 35.3044 4.70261 37.2C4.70261 37.7136 12.6497 44.7266 12.9168 45.7333C14.0006 45.7333 14.3084 45.1824 15.1148 44.6119C17.0178 43.2883 16.8722 42.9664 19.0112 43.9999C19.0112 45.5743 19.4629 46.3682 19.6699 47.8704C19.8523 49.1937 21.6638 48.8084 22.7108 48.7801C23.612 48.7557 23.3832 49.179 23.3832 49.8666V58.5332C23.3832 59.4237 23.6485 60.6432 23.3832 61.2001C22.9498 60.9081 23.1352 61.0941 22.9495 60.5697C21.4562 56.3467 16.3505 53.6001 12.1221 53.6001H1.12569C-0.396852 53.6001 0.0658945 55.8284 0.0658945 58.1334C0.0658945 61.1248 0.741314 64.2912 2.88334 66.4978C8.51464 72.2967 15.3478 70.6666 23.1182 70.6666C23.8029 71.1717 23.3832 78.6703 23.3832 80H28.6825C28.6825 78.6703 28.2628 71.1717 28.9475 70.6666C29.0274 70.6289 29.5963 70.6627 29.7297 70.6642C31.8595 70.7226 40.9872 70.809 41.9648 70.5672C50.969 68.3423 51.9998 63.0873 51.9998 54.6666C51.9998 54.0218 51.5807 53.6001 50.94 53.6001C42.5597 53.6001 35.4555 51.7824 29.9651 58.8908C29.4949 59.4995 29.2074 60.8464 28.6825 61.2001C28.4171 60.6432 28.6825 59.4237 28.6825 58.5332V49.8666C28.6825 48.2744 29.1117 48.7897 30.9414 48.8066C31.8209 48.8135 32.2558 48.7121 32.3823 47.9899C32.5552 47.0022 33.0745 41.5452 35.6568 43.7811C36.3933 44.4184 37.3394 44.8768 38.1159 45.4395C38.3956 45.6424 38.4815 45.7333 38.8838 45.7333C39.2693 45.7333 39.1907 45.5662 39.4826 45.2694L46.3589 38.3229C47.5162 37.2509 47.7256 37.4869 46.8064 36.0266C46.6864 35.836 46.6446 35.7319 46.5085 35.5266C44.1382 32.0782 44.6991 31.225 49.0681 30.7828C49.614 30.7274 50.4102 30.461 50.4102 29.8667V18.5332C50.4102 16.2971 41.8541 19.8879 46.99 12.2914C47.3912 11.8107 47.6783 11.4819 46.9502 10.6821C44.6766 8.18466 41.9331 5.64027 39.5227 3.22383C38.8356 2.58683 38.4725 2.70454 37.7821 3.29096C33.9479 5.83896 32.3922 5.86154 32.3922 0H19.6735C19.6735 0.952488 19.5744 1.5645 19.3259 2.3165C18.8679 3.70249 18.6328 6.4868 16.0561 4.44063Z" fill="white"/>
</svg>
