<svg width="67" height="68" viewBox="0 0 67 68" fill="none" xmlns="http://www.w3.org/2000/svg">
<rect y="0.5" width="67" height="67" rx="33.5" fill="#FFF5E7"/>
<path d="M47 33.25C47 32.1423 46.393 31.1856 45.5 30.6662V23.5005C45.5 23.0903 45.1728 22 44 22C43.6663 22 43.3348 22.1116 43.0634 22.3291L39.0777 25.518C37.0756 27.1183 34.5622 28 32 28H23C21.343 28 20 29.343 20 31V35.5C20 37.157 21.343 38.5 23 38.5H24.5797C24.5145 38.9912 24.4775 39.4909 24.4775 40C24.4775 41.8642 24.9116 43.6258 25.6756 45.2003C25.9189 45.7014 26.45 46 27.0069 46H30.4888C31.7098 46 32.443 44.6012 31.7028 43.63C30.9341 42.6212 30.477 41.3631 30.477 40C30.477 39.4792 30.553 38.9786 30.6838 38.5H32C34.5622 38.5 37.0756 39.3817 39.0772 40.982L43.063 44.1709C43.3288 44.3837 43.6591 44.4997 43.9995 44.5C45.1677 44.5 45.4995 43.4322 45.4995 43V35.8342C46.393 35.3144 47 34.3577 47 33.25ZM42.5 39.8791L40.9508 38.6397C38.4195 36.6147 35.24 35.5 32 35.5V31C35.24 31 38.4195 29.8853 40.9508 27.8603L42.5 26.6209V39.8791Z" fill="#382100"/>
</svg>
