<svg width="67" height="68" viewBox="0 0 67 68" fill="none" xmlns="http://www.w3.org/2000/svg">
<rect y="0.5" width="67" height="67" rx="33.5" fill="#382100"/>
<g clip-path="url(#clip0_583_516)">
<path d="M32.7059 28.7641L35.2498 29.4344C35.3362 29.4546 35.4135 29.5028 35.4697 29.5714C35.5259 29.6401 35.5579 29.7254 35.5606 29.8141C35.5606 30.0297 35.3689 30.2078 35.1331 30.2078H33.4644C33.2845 30.2073 33.1065 30.1723 32.9398 30.1047C32.6942 30.0016 32.4111 30.025 32.2227 30.1984L31.332 31.0187C31.2908 31.0548 31.2553 31.0968 31.2266 31.1434C31.1898 31.2038 31.1653 31.2707 31.1546 31.3406C31.1438 31.4104 31.147 31.4816 31.1639 31.5502C31.1808 31.6188 31.2111 31.6834 31.2531 31.7402C31.295 31.797 31.3478 31.8449 31.4084 31.8812C31.9017 32.1773 32.4539 32.3613 33.0261 32.4203V33.25C33.0261 33.6625 33.3931 34 33.8403 34H34.6545C35.1022 34 35.4692 33.6625 35.4692 33.25V32.425C37.0128 32.2562 38.1805 30.9719 37.977 29.4719C37.8294 28.3937 36.9242 27.5359 35.7945 27.2359L33.2506 26.5656C33.1642 26.5454 33.0869 26.4972 33.0307 26.4286C32.9745 26.3599 32.9426 26.2746 32.9398 26.1859C32.9398 25.9703 33.1316 25.7922 33.3673 25.7922H35.0361C35.2166 25.7925 35.3953 25.8275 35.5625 25.8953C35.8077 25.9984 36.0912 25.975 36.2797 25.8016L37.1703 24.9812C37.2101 24.946 37.2444 24.9049 37.272 24.8594C37.3091 24.7991 37.3339 24.732 37.3449 24.6621C37.3559 24.5922 37.353 24.5208 37.3362 24.452C37.3195 24.3832 37.2893 24.3184 37.2474 24.2614C37.2055 24.2044 37.1527 24.1562 37.092 24.1197C36.5986 23.8237 36.0462 23.6397 35.4739 23.5806V22.75C35.4739 22.3375 35.1073 22 34.6597 22H33.8455C33.3978 22 33.0313 22.3375 33.0313 22.75V23.575C31.4895 23.7437 30.3195 25.0281 30.523 26.5281C30.6702 27.6062 31.5781 28.4641 32.7059 28.7641ZM46.497 37.3797C45.9439 36.8781 45.0814 36.9109 44.5002 37.3797L40.1689 40.8437C39.6372 41.2703 38.9755 41.5019 38.2939 41.5H32.75C32.5511 41.5 32.3603 41.421 32.2197 41.2803C32.079 41.1397 32 40.9489 32 40.75C32 40.5511 32.079 40.3603 32.2197 40.2197C32.3603 40.079 32.5511 40 32.75 40H36.4198C37.1652 40 37.8594 39.4891 37.9784 38.7531C37.9931 38.6686 38.0003 38.583 38 38.4972C37.9993 38.0998 37.8409 37.719 37.5597 37.4383C37.2784 37.1576 36.8973 37 36.5 37H29C27.7351 37.0003 26.5088 37.4354 25.5266 38.2323L23.3469 40H20.75C20.5511 40 20.3603 40.079 20.2197 40.2197C20.079 40.3603 20 40.5511 20 40.75V45.25C20 45.4489 20.079 45.6397 20.2197 45.7803C20.3603 45.921 20.5511 46 20.75 46H37.4736C38.155 46.0005 38.8163 45.7691 39.3486 45.3437L46.4375 39.6719C46.608 39.5355 46.7467 39.3635 46.8439 39.168C46.9411 38.9724 46.9944 38.758 47.0001 38.5397C47.0058 38.3214 46.9638 38.1045 46.877 37.9042C46.7902 37.7038 46.6607 37.5248 46.4975 37.3797H46.497Z" fill="white"/>
</g>
<defs>
<clipPath id="clip0_583_516">
<rect width="27" height="27" fill="white" transform="translate(20 20.5)"/>
</clipPath>
</defs>
</svg>
