<svg width="67" height="68" viewBox="0 0 67 68" fill="none" xmlns="http://www.w3.org/2000/svg">
<rect y="0.5" width="67" height="67" rx="33.5" fill="white"/>
<path d="M46.325 38.0502H45.65V33.4897C45.65 32.9539 45.4348 32.4393 45.0552 32.0596L40.8406 27.845C40.4609 27.4654 39.9463 27.2502 39.4105 27.2502H37.55V25.2252C37.55 24.1072 36.643 23.2002 35.525 23.2002H22.025C20.907 23.2002 20 24.1072 20 25.2252V38.7252C20 39.8432 20.907 40.7502 22.025 40.7502H22.7C22.7 42.9861 24.5141 44.8002 26.75 44.8002C28.9859 44.8002 30.8 42.9861 30.8 40.7502H36.2C36.2 42.9861 38.0141 44.8002 40.25 44.8002C42.4859 44.8002 44.3 42.9861 44.3 40.7502H46.325C46.6963 40.7502 47 40.4464 47 40.0752V38.7252C47 38.3539 46.6963 38.0502 46.325 38.0502ZM26.75 42.7752C25.632 42.7752 24.725 41.8682 24.725 40.7502C24.725 39.6322 25.632 38.7252 26.75 38.7252C27.868 38.7252 28.775 39.6322 28.775 40.7502C28.775 41.8682 27.868 42.7752 26.75 42.7752ZM40.25 42.7752C39.132 42.7752 38.225 41.8682 38.225 40.7502C38.225 39.6322 39.132 38.7252 40.25 38.7252C41.368 38.7252 42.275 39.6322 42.275 40.7502C42.275 41.8682 41.368 42.7752 40.25 42.7752ZM43.625 34.0002H37.55V29.2752H39.4105L43.625 33.4897V34.0002Z" fill="#01AE56"/>
</svg>
