<svg width="67" height="68" viewBox="0 0 67 68" fill="none" xmlns="http://www.w3.org/2000/svg">
<rect y="0.5" width="67" height="67" rx="33.5" fill="white"/>
<path d="M46.3863 27.9777L43.5417 23.4368C43.2875 23.0291 42.836 22.7793 42.3539 22.7793H24.6461C24.1639 22.7793 23.7125 23.0291 23.4583 23.4368L20.6136 27.9777C19.1453 30.3226 20.4471 33.5837 23.1909 33.9562C23.3881 33.9825 23.5897 33.9957 23.7914 33.9957C25.0888 33.9957 26.2371 33.4259 27.0261 32.5449C27.8151 33.4259 28.9678 33.9957 30.2609 33.9957C31.5583 33.9957 32.7066 33.4259 33.4956 32.5449C34.2846 33.4259 35.4373 33.9957 36.7303 33.9957C38.0277 33.9957 39.1761 33.4259 39.9651 32.5449C40.7584 33.4259 41.9068 33.9957 43.1998 33.9957C43.4058 33.9957 43.6031 33.9825 43.8003 33.9562C46.5529 33.5881 47.8591 30.327 46.3863 27.9777ZM43.2086 35.4027C42.7703 35.4027 42.3363 35.3369 41.9156 35.2361V39.6105H25.0844V35.2361C24.6636 35.3325 24.2297 35.4027 23.7914 35.4027C23.5284 35.4027 23.261 35.3851 23.0024 35.3501C22.757 35.315 22.5159 35.258 22.2836 35.1923V43.8183C22.2836 44.5941 22.9104 45.2209 23.6862 45.2209H43.3225C44.0984 45.2209 44.7251 44.5941 44.7251 43.8183V35.1923C44.4884 35.2624 44.2518 35.3194 44.0063 35.3501C43.7389 35.3851 43.4759 35.4027 43.2086 35.4027Z" fill="#016130"/>
</svg>
