<svg width="40" height="66" viewBox="0 0 40 66" fill="none" xmlns="http://www.w3.org/2000/svg">
<path d="M33.3333 0H6.66667C4.89856 0 3.20286 0.695355 1.95262 1.93309C0.702379 3.17084 0 4.84957 0 6.6V59.4C0 61.1504 0.702379 62.8292 1.95262 64.0669C3.20286 65.3046 4.89856 66 6.66667 66H33.3333C35.1014 66 36.7971 65.3046 38.0474 64.0669C39.2976 62.8292 40 61.1504 40 59.4V6.6C40 4.84957 39.2976 3.17084 38.0474 1.93309C36.7971 0.695355 35.1014 0 33.3333 0ZM23.3333 62.7H16.6667V59.4H23.3333V62.7ZM33.3333 56.1H6.66667V9.9H33.3333V56.1Z" fill="white"/>
</svg>
