<svg width="15" height="15" viewBox="0 0 15 15" fill="none" xmlns="http://www.w3.org/2000/svg">
<path d="M7.5 0C8.1875 0 8.85156 0.0885417 9.49219 0.265625C10.1328 0.442708 10.7292 0.695312 11.2812 1.02344C11.8333 1.35156 12.3385 1.74219 12.7969 2.19531C13.2552 2.64844 13.6458 3.15365 13.9688 3.71094C14.2917 4.26823 14.5443 4.86719 14.7266 5.50781C14.9089 6.14844 15 6.8125 15 7.5C15 8.1875 14.9115 8.85156 14.7344 9.49219C14.5573 10.1328 14.3047 10.7292 13.9766 11.2812C13.6484 11.8333 13.2578 12.3385 12.8047 12.7969C12.3516 13.2552 11.8464 13.6458 11.2891 13.9688C10.7318 14.2917 10.1328 14.5443 9.49219 14.7266C8.85156 14.9089 8.1875 15 7.5 15C6.8125 15 6.14844 14.9115 5.50781 14.7344C4.86719 14.5573 4.27083 14.3047 3.71875 13.9766C3.16667 13.6484 2.66146 13.2578 2.20312 12.8047C1.74479 12.3516 1.35417 11.8464 1.03125 11.2891C0.708333 10.7318 0.455729 10.1354 0.273438 9.5C0.0911458 8.86458 0 8.19792 0 7.5C0 6.8125 0.0885417 6.14844 0.265625 5.50781C0.442708 4.86719 0.695312 4.27083 1.02344 3.71875C1.35156 3.16667 1.74219 2.66146 2.19531 2.20312C2.64844 1.74479 3.15365 1.35417 3.71094 1.03125C4.26823 0.708333 4.86458 0.455729 5.5 0.273438C6.13542 0.0911458 6.80208 0 7.5 0ZM12 7H8V3H7V7H3V8H7V12H8V8H12V7Z" fill="#016130"/>
</svg>
