<svg width="18" height="19" viewBox="0 0 18 19" fill="none" xmlns="http://www.w3.org/2000/svg">
<path d="M1.8002 0.804688C0.916195 0.804688 0.200195 1.52069 0.200195 2.40469V16.8047C0.200195 17.6887 0.916195 18.4047 1.8002 18.4047H16.2002C17.0842 18.4047 17.8002 17.6887 17.8002 16.8047V2.40469C17.8002 1.52069 17.0842 0.804688 16.2002 0.804688H1.8002ZM3.91895 4.80469H7.60801L9.76113 7.88281L12.4252 4.80469H13.5861L10.283 8.62969L14.3236 14.4047H10.6346L8.24551 10.9891L5.29551 14.4047H4.11582L7.72051 10.2406L3.91895 4.80469ZM5.70332 5.75156L11.1064 13.4531H12.5377L7.13301 5.75156H5.70332Z" fill="white"/>
</svg>
