<svg width="70" height="70" viewBox="0 0 70 70" fill="none" xmlns="http://www.w3.org/2000/svg">
<path d="M60.5377 15.5896C60.2638 15.2736 59.9251 15.0202 59.5447 14.8466C59.1642 14.673 58.7509 14.5832 58.3327 14.5833H18.0273L17.4585 11.1883C17.3453 10.5073 16.9942 9.88849 16.4676 9.44201C15.941 8.99553 15.2731 8.75032 14.5827 8.75H8.02018C7.24663 8.75 6.50477 9.05729 5.95779 9.60427C5.41081 10.1513 5.10352 10.8931 5.10352 11.6667C5.10352 12.4402 5.41081 13.1821 5.95779 13.7291C6.50477 14.276 7.24663 14.5833 8.02018 14.5833H12.1123L17.5373 47.145L17.6685 47.5067L17.826 47.9471L18.176 48.4692L18.4531 48.7958L19.016 49.175L19.3427 49.3646C19.6825 49.5043 20.0457 49.5785 20.4131 49.5833H52.4993C53.2729 49.5833 54.0148 49.276 54.5617 48.7291C55.1087 48.1821 55.416 47.4402 55.416 46.6667C55.416 45.8931 55.1087 45.1513 54.5617 44.6043C54.0148 44.0573 53.2729 43.75 52.4993 43.75H22.8864L22.4023 40.8333H55.416C56.1179 40.8334 56.7962 40.5804 57.3266 40.1208C57.857 39.6611 58.2038 39.0256 58.3035 38.3308L61.2202 17.9142C61.2796 17.5004 61.2495 17.0787 61.1317 16.6777C61.014 16.2766 60.8114 15.9055 60.5377 15.5896ZM54.9698 20.4167L54.1385 26.25H43.7493V20.4167H54.9698ZM40.8327 20.4167V26.25H32.0827V20.4167H40.8327ZM40.8327 29.1667V35H32.0827V29.1667H40.8327ZM29.166 20.4167V26.25H20.416L19.9844 26.3375L18.9985 20.4167H29.166ZM20.4568 29.1667H29.166V35H21.4281L20.4568 29.1667ZM43.7493 35V29.1667H53.7185L52.8873 35H43.7493Z" fill="#016130"/>
<path d="M24.791 61.25C27.2073 61.25 29.166 59.2912 29.166 56.875C29.166 54.4588 27.2073 52.5 24.791 52.5C22.3748 52.5 20.416 54.4588 20.416 56.875C20.416 59.2912 22.3748 61.25 24.791 61.25Z" fill="#016130"/>
<path d="M51.041 61.25C53.4573 61.25 55.416 59.2912 55.416 56.875C55.416 54.4588 53.4573 52.5 51.041 52.5C48.6248 52.5 46.666 54.4588 46.666 56.875C46.666 59.2912 48.6248 61.25 51.041 61.25Z" fill="#016130"/>
</svg>
