<svg width="70" height="70" viewBox="0 0 70 70" fill="none" xmlns="http://www.w3.org/2000/svg">
<g clip-path="url(#clip0_3357_11545)">
<path d="M40.2183 18.2867C40.0623 18.2867 39.9107 18.2399 39.7876 18.1537C38.6393 17.4741 37.2611 17.1807 35.8959 17.3253C35.8021 17.3373 35.7067 17.3323 35.6152 17.3106C35.5236 17.2889 35.4378 17.251 35.3628 17.1991C35.2877 17.1472 35.225 17.0824 35.1782 17.0083C35.1314 16.9343 35.1015 16.8527 35.0903 16.7681C35.079 16.6836 35.0867 16.5979 35.1128 16.5161C35.1389 16.4342 35.1829 16.3579 35.2422 16.2916C35.3015 16.2252 35.375 16.1702 35.4583 16.1297C35.5416 16.0893 35.633 16.0642 35.7272 16.0559C37.4638 15.8567 39.2208 16.2451 40.6568 17.1456C40.7725 17.2279 40.857 17.3404 40.8984 17.4678C40.9398 17.5951 40.9362 17.7308 40.888 17.8562C40.8398 17.9816 40.7495 18.0904 40.6295 18.1675C40.5095 18.2446 40.3658 18.2863 40.2183 18.2867ZM22.0593 18.289C21.9114 18.2887 21.7673 18.247 21.647 18.1695C21.5267 18.0921 21.4363 17.9829 21.3883 17.857C21.3404 17.7312 21.3372 17.595 21.3794 17.4675C21.4215 17.34 21.5068 17.2275 21.6234 17.1456C23.0605 16.2471 24.8166 15.8589 26.553 16.0559C26.668 16.0684 26.778 16.1059 26.8733 16.1651C26.9686 16.2243 27.0465 16.3035 27.1001 16.3959C27.1537 16.4883 27.1816 16.591 27.1812 16.6952C27.1808 16.7994 27.1522 16.9019 27.0979 16.994C27.0304 17.1046 26.9275 17.1944 26.8026 17.2518C26.6777 17.3092 26.5365 17.3316 26.3973 17.316C25.0323 17.1687 23.6534 17.4613 22.5056 18.142C22.3804 18.2363 22.2226 18.2883 22.0593 18.289ZM24.8017 19.1081C23.0634 19.1081 21.6105 20.1815 21.2213 21.6282C21.0916 22.0482 21.4288 22.4449 21.9218 22.4449H23.0634C22.9691 22.1295 22.9567 21.7988 23.0272 21.4785C23.0977 21.1581 23.2491 20.8565 23.4698 20.5972C23.6904 20.3378 23.9745 20.1276 24.2999 19.9826C24.6253 19.8377 24.9834 19.762 25.3466 19.7614C25.7097 19.762 26.0678 19.8377 26.3932 19.9826C26.7186 20.1276 27.0027 20.3378 27.2233 20.5972C27.444 20.8565 27.5954 21.1581 27.6659 21.4785C27.7364 21.7988 27.724 22.1295 27.6297 22.4449H27.8114C28.2005 22.4449 28.4859 22.1415 28.4081 21.7915C28.0967 20.2748 26.5919 19.1081 24.8017 19.1081ZM37.4629 19.1081C39.2013 19.1081 40.6542 20.1815 41.0434 21.6282C41.1472 22.0482 40.8099 22.4449 40.3429 22.4449H39.2013C39.2532 22.2582 39.2791 22.0715 39.2791 21.8849C39.2791 20.7181 38.2154 19.7614 36.9181 19.7614C35.5949 19.7614 34.5571 20.7181 34.5571 21.8849C34.5571 22.0715 34.583 22.2582 34.6349 22.4449H34.4533C34.3627 22.4468 34.2728 22.4302 34.1905 22.3963C34.1081 22.3623 34.0354 22.312 33.9779 22.249C33.9204 22.186 33.8796 22.1121 33.8585 22.0329C33.8375 21.9536 33.8368 21.8711 33.8566 21.7915C34.1679 20.2748 35.6468 19.1081 37.4629 19.1081Z" fill="white"/>
<path d="M25.3493 20.671C26.1017 20.671 26.6985 21.2077 26.6985 21.8844C26.6985 22.0711 26.6206 22.2811 26.5428 22.4444H24.1558C24.0488 22.262 23.9953 22.0581 24.0003 21.8519C24.0053 21.6457 24.0687 21.4441 24.1844 21.266C24.2194 21.3059 24.2631 21.339 24.3128 21.3631C24.3625 21.3873 24.4172 21.4021 24.4735 21.4066C24.5298 21.4111 24.5865 21.4052 24.6402 21.3892C24.6939 21.3733 24.7434 21.3477 24.7856 21.314C24.8279 21.2802 24.8621 21.2391 24.8861 21.1931C24.91 21.1471 24.9233 21.0971 24.9251 21.0463C24.9268 20.9955 24.9171 20.9449 24.8963 20.8976C24.8756 20.8504 24.8443 20.8074 24.8045 20.7714C24.9759 20.7029 25.1618 20.6686 25.3493 20.671ZM36.9208 20.671C36.7588 20.669 36.5977 20.6943 36.446 20.7457C36.496 20.7806 36.5364 20.8254 36.5642 20.8765C36.5919 20.9276 36.6064 20.9838 36.6063 21.0407C36.6063 21.0976 36.5918 21.1537 36.5639 21.2048C36.536 21.2559 36.4956 21.3006 36.4456 21.3354C36.3956 21.3703 36.3374 21.3944 36.2754 21.406C36.2135 21.4175 36.1494 21.4162 36.0881 21.4021C36.0269 21.3879 35.97 21.3614 35.9218 21.3245C35.8737 21.2876 35.8356 21.2412 35.8104 21.189C35.6703 21.3715 35.5886 21.585 35.5739 21.8063C35.5593 22.0276 35.6124 22.2483 35.7274 22.4444H38.1143C38.2181 22.2811 38.27 22.0944 38.27 21.8844C38.27 21.2077 37.6732 20.671 36.9208 20.671ZM30.3048 21.6977L28.9297 25.6879C28.6443 26.5046 29.3189 27.3213 30.2789 27.3213H32.3026C33.2626 27.3213 33.9371 26.5046 33.6517 25.6879L32.3026 21.6977C32.2366 21.5058 32.104 21.338 31.9243 21.2188C31.7445 21.0996 31.527 21.0353 31.3037 21.0353C31.0804 21.0353 30.8629 21.0996 30.6832 21.2188C30.5034 21.338 30.3708 21.5058 30.3048 21.6977ZM27.2952 28.7447C28.4108 29.2814 29.734 29.5848 31.1351 29.5848C32.5361 29.5848 33.8593 29.2814 34.9749 28.7447C35.3382 28.5814 35.7533 28.9547 35.5198 29.2814C34.5858 30.5648 32.9772 31.4282 31.1351 31.4282C29.293 31.4282 27.6844 30.5648 26.7503 29.2814C26.5168 28.9547 26.906 28.558 27.2952 28.7447Z" fill="white"/>
<path d="M22.3258 1.85888C26.4251 0.0161002 31.1131 -0.475682 35.5739 0.469109C40.0347 1.4139 43.986 3.73545 46.7402 7.02978C48.615 7.1944 50.435 7.69125 52.0953 8.49165C53.7555 9.29205 55.2231 10.3802 56.4134 11.6932C57.6038 13.0063 58.4932 14.5184 59.0306 16.1421C59.5679 17.7659 59.7424 19.4693 59.5441 21.1541C60.323 21.3937 60.999 21.8466 61.4773 22.4492C61.9556 23.0518 62.2123 23.7739 62.2113 24.5142C62.2101 23.6213 62.5835 22.7609 63.2568 22.1047C63.9301 21.4485 64.8539 21.0449 65.8436 20.9744H66.1082C67.1375 20.9829 68.1218 21.3544 68.8497 22.009C69.5775 22.6636 69.9905 23.5489 70 24.4746V40.9953C69.9979 42.4862 69.3385 43.9155 68.1663 44.9698C66.9942 46.024 65.4049 46.6171 63.7472 46.6189H62.8651V48.439C62.8651 48.7252 62.8184 49.0037 62.725 49.2744C64.0081 49.388 65.1983 49.9272 66.0635 50.787C66.9288 51.6467 67.4072 52.7653 67.4055 53.9249V65.4451C67.4326 66.6275 66.937 67.7712 66.0273 68.6252C65.1177 69.4792 63.8684 69.9737 62.5537 70H53.9918C53.7141 70.0002 53.437 69.9767 53.1642 69.93H2.59453C1.90642 69.93 1.24649 69.6842 0.759926 69.2466C0.27336 68.8089 1.07053e-05 68.2154 1.07053e-05 67.5966V59.4295C-0.00466989 54.3587 1.52558 49.3825 4.42664 45.0345C7.32769 40.6865 11.4901 37.1308 16.4674 34.7487C16.1027 34.1227 15.7972 33.4701 15.5541 32.798C15.4679 32.7252 15.3873 32.6473 15.3128 32.5646C11.8137 32.2152 8.58162 30.7147 6.23818 28.3516C3.89474 25.9885 2.60534 22.9297 2.61789 19.7633C2.63045 16.5969 3.94407 13.5465 6.30619 11.1985C8.66831 8.85051 11.9122 7.37077 15.414 7.04378C17.2392 4.85729 19.6071 3.08228 22.3258 1.85888ZM59.0148 23.5062C58.832 23.394 58.6204 23.3257 58.3999 23.3079H58.3091C57.9673 23.3109 57.6407 23.4352 57.4002 23.6537C57.1597 23.8722 57.0248 24.1672 57.0248 24.4746V34.9051C57.0331 35.513 56.7823 36.1007 56.3239 36.5477C55.8656 36.9946 55.2345 37.2668 54.56 37.3085H54.4225C53.7344 37.3085 53.0745 37.0627 52.5879 36.6251C52.1014 36.1875 51.828 35.5939 51.828 34.9751V30.8799H51.8099V24.5212C51.8099 23.8912 51.291 23.3545 50.5904 23.3079H50.5178C50.176 23.3109 49.8494 23.4352 49.6089 23.6537C49.3684 23.8722 49.2335 24.1672 49.2335 24.4746V39.6513L49.3451 39.7353V41.805C49.485 42.3014 49.7519 42.7615 50.1244 43.1488C50.4969 43.5361 50.9647 43.8398 51.4907 44.0358C51.9353 44.2007 52.398 44.2839 52.8788 44.2855H56.3684V48.439C56.3684 48.5752 56.4286 48.7057 56.5356 48.802C56.6427 48.8983 56.7878 48.9524 56.9392 48.9524H59.6998C59.8512 48.9524 59.9964 48.8983 60.1034 48.802C60.2104 48.7057 60.2706 48.5752 60.2706 48.439V44.2855H63.7472C64.2279 44.2864 64.7041 44.2019 65.1484 44.0369C65.5927 43.8719 65.9964 43.6296 66.3363 43.3239C66.6762 43.0182 66.9456 42.6551 67.1291 42.2555C67.3126 41.8559 67.4065 41.4277 67.4055 40.9953V24.4722C67.3988 24.1647 67.26 23.8714 67.0182 23.6539C66.7763 23.4363 66.4502 23.3115 66.1082 23.3055L66.1264 23.3079H66.0356C65.6993 23.3338 65.3865 23.4734 65.1602 23.6986C64.9339 23.9238 64.811 24.2178 64.8162 24.5212V34.9051C64.8244 35.513 64.5736 36.1007 64.1153 36.5477C63.6569 36.9946 63.0258 37.2668 62.3514 37.3085H62.2139C61.5258 37.3085 60.8658 37.0627 60.3793 36.6251C59.8927 36.1875 59.6194 35.5939 59.6194 34.9751V24.5212C59.6239 24.3189 59.571 24.1189 59.4657 23.94C59.3604 23.7612 59.2061 23.6095 59.0174 23.4992L59.0148 23.5062ZM52.7595 46.6189C51.5391 46.6003 50.3518 46.2595 49.3451 45.6389V65.2514H50.7669C50.8361 64.9637 50.9493 64.6938 51.1068 64.4417C50.8212 64.0009 50.6703 63.5 50.6694 62.9898C50.6685 62.4796 50.8176 61.9783 51.1016 61.5366C50.8162 61.0925 50.6673 60.5881 50.67 60.0752C50.6728 59.5622 50.8271 59.0591 51.1171 58.6175C50.8208 58.1516 50.6744 57.6208 50.6942 57.0844C50.7409 55.5723 52.0901 54.4313 53.6572 54.2866C53.7656 54.2613 53.8772 54.2488 53.9893 54.2493H54.4303V50.1938C53.9907 49.6955 53.7528 49.0774 53.7557 48.4413V48.0913C53.4439 47.5897 53.1116 47.0985 52.7595 46.6189ZM54.2487 56.5827C54.1633 56.5983 54.0764 56.6061 53.9893 56.6061C53.5689 56.6061 53.2965 56.9001 53.2887 57.1474V57.1614C53.2889 57.2634 53.3167 57.3638 53.3695 57.4541C53.4224 57.5443 53.4989 57.6216 53.5923 57.6794C53.7668 57.789 53.9086 57.9355 54.0053 58.106C54.102 58.2765 54.1505 58.4658 54.1467 58.6571C54.1428 58.8485 54.0867 59.0361 53.9833 59.2033C53.8798 59.3706 53.7322 59.5124 53.5534 59.6162C53.4671 59.6675 53.3957 59.7366 53.3451 59.8178C53.2946 59.899 53.2663 59.9899 53.2628 60.0829C53.2628 60.2929 53.3744 60.4492 53.53 60.5379C53.7157 60.6413 53.8694 60.7851 53.9769 60.9561C54.0843 61.1272 54.142 61.3198 54.1446 61.5162C54.1471 61.7126 54.0946 61.9064 53.9917 62.0797C53.8888 62.2529 53.7389 62.4 53.556 62.5073C53.4688 62.5586 53.3967 62.628 53.3457 62.7096C53.2946 62.7913 53.2662 62.8827 53.2628 62.9763C53.2628 63.1864 53.3744 63.3427 53.53 63.4314C53.6981 63.5252 53.8401 63.6524 53.9452 63.8033C54.0502 63.9541 54.1155 64.1245 54.136 64.3015C54.1566 64.4785 54.1318 64.6574 54.0636 64.8245C53.9955 64.9916 53.8857 65.1424 53.7428 65.2654C53.8604 65.2779 53.9754 65.2966 54.0878 65.3215H62.2139V56.5827H54.2487ZM57.0274 51.3325V54.2493H59.6219V51.3325H57.0274ZM41.4863 65.2514V59.0328C41.475 58.7226 41.3311 58.4282 41.0847 58.2109C40.8383 57.9937 40.5082 57.8701 40.1631 57.8661H22.1572C21.4307 57.8661 20.8599 58.3795 20.8599 59.0328V65.2514H41.4863ZM12.9726 65.2514V42.7804C10.5118 44.9492 8.55693 47.5378 7.22263 50.3947C5.88832 53.2515 5.20136 56.3192 5.20201 59.4179V65.2514H12.9726ZM18.3173 39.1613V50.3291C18.3173 50.8658 18.7843 51.2858 19.381 51.2858H42.9133C43.51 51.2858 43.977 50.8658 43.977 50.3291V39.1986C43.1698 38.7838 42.3383 38.4084 41.4863 38.0739V46.8289C41.4863 47.9023 40.1631 48.509 39.2031 47.9023L34.0893 44.6728L32.6623 45.8162C32.2296 46.1596 31.6723 46.3491 31.0953 46.3491C30.5182 46.3491 29.9609 46.1596 29.5282 45.8162L29.5178 45.8092L28.1142 44.6822L23.0133 47.9023C22.7972 48.0377 22.5442 48.1177 22.2814 48.1338C22.0186 48.1499 21.7559 48.1014 21.5214 47.9935C21.2869 47.8857 21.0894 47.7225 20.95 47.5215C20.8106 47.3204 20.7347 47.0891 20.7302 46.8523V38.0762C19.8999 38.3998 19.0956 38.7615 18.3173 39.1613ZM42.3114 30.3899C42.4445 29.9932 42.5431 29.5848 42.6071 29.1648L42.9081 25.1513L44.0289 25.0743C44.7572 25.0249 45.4413 24.7411 45.9558 24.2748C46.4702 23.8086 46.7805 23.1911 46.8296 22.5357C46.8788 21.8804 46.6637 21.231 46.2236 20.7068C45.7835 20.1825 45.148 19.8186 44.4337 19.6817L43.3076 19.4647L43.4348 18.2186C43.4493 17.6771 43.3229 17.14 43.0656 16.6502C42.8084 16.1604 42.4275 15.7314 41.9533 15.3975H37.7061C36.6746 15.3968 35.6609 15.1556 34.7639 14.6975H22.8577C20.6575 14.6975 18.9503 16.3775 19.1423 18.3283L19.1449 18.3563L19.1475 18.41L19.2254 19.5067L18.0137 19.642C17.2467 19.7281 16.545 20.0741 16.0519 20.6094C15.5587 21.1448 15.3113 21.8292 15.3599 22.523C15.4086 23.2168 15.7497 23.8678 16.3137 24.3432C16.8777 24.8186 17.6221 25.0826 18.3951 25.0813H18.4055L19.6249 25.0766L19.9207 29.1671C20.2162 31.0953 21.2784 32.862 22.9107 34.14C24.543 35.418 26.6349 36.1209 28.7991 36.1184H33.7287C35.5759 36.1169 37.3775 35.603 38.8879 34.6467C40.3984 33.6904 41.544 32.3383 42.1687 30.7749L42.1712 30.7702C42.2057 30.64 42.2526 30.5128 42.3114 30.3899ZM31.1082 40.0386C32.6598 40.0386 33.9311 39.3643 34.6108 38.4216C34.3173 38.4407 34.023 38.4508 33.7287 38.4519H28.7991C28.384 38.4519 27.9732 38.4324 27.5667 38.3936C28.2361 39.3503 29.5178 40.0386 31.1082 40.0386ZM31.1082 42.3721C30.3126 42.369 29.5541 42.2577 28.8328 42.0384C29.0577 42.2795 29.3007 42.5051 29.5619 42.7151L31.0953 43.9471L32.6286 42.7174C32.8881 42.5074 33.1285 42.2834 33.3499 42.0454C32.6416 42.2554 31.8866 42.3721 31.1082 42.3721Z" fill="white"/>
</g>
<defs>
<clipPath id="clip0_3357_11545">
<rect width="70" height="70" fill="white"/>
</clipPath>
</defs>
</svg>
